# xmcd
#
# Track frame offsets: 
#        150
#        18153
#        36602
#        50463
#        64113
#        80841
#        91728
#        111108
#        125332
#        140237
#        155282
#        170591
#        186280
#        200757
#        214100
#        234139
#        251076
#        266485
#
# Disc length: 3789 seconds
#
# Revision: 0
# Processed by: cddbd v1.5.2PL0 Copyright (c) Steve Scherf et al.
# Submitted via: ExactAudioCopy v0.99pb4
#
DISCID=040ecb12
DTITLE=Various Artist - Liedjes Met Een Lach En Een Traan - Vol. 1 - CD 2
DYEAR=2009
DGENRE=Chanson
TTITLE0=Eddy Wally - Shanghai
TTITLE1=Jan and Mien Froger - Dat Huis
TTITLE2=Corry and De Rekels - Huilen Is Voor Jou Te Laat
TTITLE3=Koos Alberts - Ik Verscheurde Je Foto
TTITLE4=Zangeres Zonder Naam - Mandolinen In Nicosia
TTITLE5=Johnny Hoes - Daar Mag Je Alleen Maar Naar Kijken
TTITLE6=Peter Beense - Als Zij Eens Deed
TTITLE7=Radi Ensemble - Wini Wini
TTITLE8=Arne Jansen - Pappie Loop Toch Niet Zo Snel
TTITLE9=Renee De Haan - Mooie Blauwe Ogen
TTITLE10=Dennie Christian - Dennie's Hitmix
TTITLE11=Henk Wijngaard - 'n Sneeuwitte Bruidsjurk
TTITLE12=De Heikrekels - Waarom Heb Je Mij Laten Staan
TTITLE13=Anja - Nu Dans Je Nooit Meer Met Mij
TTITLE14=Stef Ekkel - De Woonboot
TTITLE15=Benny Neyman - Waarom Fluister Ik Je Naam Nog
TTITLE16=Lucas and Gea - Steeds Weer Huil Je
TTITLE17=Gerard De Vries - Giddy Go Up
EXTD=
EXTT0=
EXTT1=
EXTT2=
EXTT3=
EXTT4=
EXTT5=
EXTT6=
EXTT7=
EXTT8=
EXTT9=
EXTT10=
EXTT11=
EXTT12=
EXTT13=
EXTT14=
EXTT15=
EXTT16=
EXTT17=
PLAYORDER=
